<svg width="14" height="12" viewBox="0 0 14 12" fill="none" xmlns="http://www.w3.org/2000/svg">
<path d="M3.62108 9.5C3.15442 9.88889 2.66831 10.0667 2.16275 10.0333C1.6572 10 1.21553 9.82778 0.837751 9.51667C0.459973 9.20556 0.20164 8.79722 0.062751 8.29167C-0.0761379 7.78611 0.0155288 7.26667 0.337751 6.73333L1.58775 4.66667C1.30997 4.42222 1.09053 4.12778 0.929418 3.78333C0.768307 3.43889 0.687751 3.06667 0.687751 2.66667C0.687751 1.93333 0.948862 1.30556 1.47108 0.783333C1.99331 0.261111 2.62108 0 3.35442 0C4.08775 0 4.71553 0.261111 5.23775 0.783333C5.75997 1.30556 6.02108 1.93333 6.02108 2.66667C6.02108 3.4 5.75997 4.02778 5.23775 4.55C4.71553 5.07222 4.08775 5.33333 3.35442 5.33333C3.25442 5.33333 3.15442 5.32778 3.05442 5.31667C2.95442 5.30556 2.85997 5.28889 2.77108 5.26667L1.48775 7.43333C1.36553 7.63333 1.32664 7.83056 1.37108 8.025C1.41553 8.21945 1.50997 8.37778 1.65442 8.5C1.79886 8.62222 1.97108 8.69167 2.17108 8.70833C2.37108 8.725 2.56553 8.65556 2.75442 8.5L9.75442 2.48333C10.2211 2.09444 10.71 1.91944 11.2211 1.95833C11.7322 1.99722 12.1766 2.17222 12.5544 2.48333C12.9322 2.79444 13.1878 3.20278 13.3211 3.70833C13.4544 4.21389 13.36 4.73333 13.0378 5.26667L11.7878 7.33333C12.0655 7.57778 12.285 7.87222 12.4461 8.21667C12.6072 8.56111 12.6878 8.93333 12.6878 9.33333C12.6878 10.0667 12.4266 10.6944 11.9044 11.2167C11.3822 11.7389 10.7544 12 10.0211 12C9.28775 12 8.65997 11.7389 8.13775 11.2167C7.61553 10.6944 7.35442 10.0667 7.35442 9.33333C7.35442 8.6 7.61553 7.97222 8.13775 7.45C8.65997 6.92778 9.28775 6.66667 10.0211 6.66667C10.1211 6.66667 10.2183 6.67222 10.3128 6.68333C10.4072 6.69445 10.4989 6.71111 10.5878 6.73333L11.8878 4.56667C12.01 4.36667 12.0489 4.16944 12.0044 3.975C11.96 3.78056 11.8655 3.62222 11.7211 3.5C11.5766 3.37778 11.4044 3.30833 11.2044 3.29167C11.0044 3.275 10.81 3.34444 10.6211 3.5L3.62108 9.5ZM3.35442 4C3.72108 4 4.03497 3.86944 4.29608 3.60833C4.5572 3.34722 4.68775 3.03333 4.68775 2.66667C4.68775 2.3 4.5572 1.98611 4.29608 1.725C4.03497 1.46389 3.72108 1.33333 3.35442 1.33333C2.98775 1.33333 2.67386 1.46389 2.41275 1.725C2.15164 1.98611 2.02108 2.3 2.02108 2.66667C2.02108 3.03333 2.15164 3.34722 2.41275 3.60833C2.67386 3.86944 2.98775 4 3.35442 4ZM10.0211 10.6667C10.3878 10.6667 10.7016 10.5361 10.9628 10.275C11.2239 10.0139 11.3544 9.7 11.3544 9.33333C11.3544 8.96667 11.2239 8.65278 10.9628 8.39167C10.7016 8.13056 10.3878 8 10.0211 8C9.65442 8 9.34053 8.13056 9.07942 8.39167C8.81831 8.65278 8.68775 8.96667 8.68775 9.33333C8.68775 9.7 8.81831 10.0139 9.07942 10.275C9.34053 10.5361 9.65442 10.6667 10.0211 10.6667Z" fill="#4B5563"/>
</svg>
