<svg width="53" height="53" viewBox="0 0 53 53" fill="none" xmlns="http://www.w3.org/2000/svg">
<rect width="53" height="53" rx="25" fill="#EAB308" fill-opacity="0.2"/>
<rect x="8.5" y="8.5" width="36" height="36" rx="18" fill="#EAB308"/>
<mask id="mask0_1204_3828" style="mask-type:alpha" maskUnits="userSpaceOnUse" x="14" y="14" width="25" height="25">
<rect x="14.5" y="14.5" width="24" height="24" fill="#D9D9D9"/>
</mask>
<g mask="url(#mask0_1204_3828)">
<path d="M21 34.5C19.4833 34.5 18.1875 33.975 17.1125 32.925C16.0375 31.875 15.5 30.5917 15.5 29.075C15.5 27.775 15.8917 26.6167 16.675 25.6C17.4583 24.5833 18.4833 23.9333 19.75 23.65C20.1667 22.1167 21 20.875 22.25 19.925C23.5 18.975 24.9167 18.5 26.5 18.5C28.45 18.5 30.1042 19.1792 31.4625 20.5375C32.8208 21.8958 33.5 23.55 33.5 25.5C34.65 25.6333 35.6042 26.1292 36.3625 26.9875C37.1208 27.8458 37.5 28.85 37.5 30C37.5 31.25 37.0625 32.3125 36.1875 33.1875C35.3125 34.0625 34.25 34.5 33 34.5H21ZM21 32.5H33C33.7 32.5 34.2917 32.2583 34.775 31.775C35.2583 31.2917 35.5 30.7 35.5 30C35.5 29.3 35.2583 28.7083 34.775 28.225C34.2917 27.7417 33.7 27.5 33 27.5H31.5V25.5C31.5 24.1167 31.0125 22.9375 30.0375 21.9625C29.0625 20.9875 27.8833 20.5 26.5 20.5C25.1167 20.5 23.9375 20.9875 22.9625 21.9625C21.9875 22.9375 21.5 24.1167 21.5 25.5H21C20.0333 25.5 19.2083 25.8417 18.525 26.525C17.8417 27.2083 17.5 28.0333 17.5 29C17.5 29.9667 17.8417 30.7917 18.525 31.475C19.2083 32.1583 20.0333 32.5 21 32.5ZM26.5 30.5C26.7833 30.5 27.0208 30.4042 27.2125 30.2125C27.4042 30.0208 27.5 29.7833 27.5 29.5C27.5 29.2167 27.4042 28.9792 27.2125 28.7875C27.0208 28.5958 26.7833 28.5 26.5 28.5C26.2167 28.5 25.9792 28.5958 25.7875 28.7875C25.5958 28.9792 25.5 29.2167 25.5 29.5C25.5 29.7833 25.5958 30.0208 25.7875 30.2125C25.9792 30.4042 26.2167 30.5 26.5 30.5ZM25.5 27H27.5V22.5H25.5V27Z" fill="white"/>
</g>
</svg>
