<svg width="53" height="53" viewBox="0 0 53 53" fill="none" xmlns="http://www.w3.org/2000/svg">
<rect width="53" height="53" rx="25" fill="#EAB308" fill-opacity="0.2"/>
<rect x="8.5" y="8.5" width="36" height="36" rx="18" fill="#EAB308"/>
<mask id="mask0_1204_3769" style="mask-type:alpha" maskUnits="userSpaceOnUse" x="14" y="14" width="25" height="25">
<rect x="14.5" y="14.5" width="24" height="24" fill="#D9D9D9"/>
</mask>
<g mask="url(#mask0_1204_3769)">
<path d="M29.75 19.5C29.4 19.5 29.1042 19.3792 28.8625 19.1375C28.6208 18.8958 28.5 18.6 28.5 18.25C28.5 17.9 28.6208 17.6042 28.8625 17.3625C29.1042 17.1208 29.4 17 29.75 17C30.1 17 30.3958 17.1208 30.6375 17.3625C30.8792 17.6042 31 17.9 31 18.25C31 18.6 30.8792 18.8958 30.6375 19.1375C30.3958 19.3792 30.1 19.5 29.75 19.5ZM29.75 36C29.4 36 29.1042 35.8792 28.8625 35.6375C28.6208 35.3958 28.5 35.1 28.5 34.75C28.5 34.4 28.6208 34.1042 28.8625 33.8625C29.1042 33.6208 29.4 33.5 29.75 33.5C30.1 33.5 30.3958 33.6208 30.6375 33.8625C30.8792 34.1042 31 34.4 31 34.75C31 35.1 30.8792 35.3958 30.6375 35.6375C30.3958 35.8792 30.1 36 29.75 36ZM33.75 23C33.4 23 33.1042 22.8792 32.8625 22.6375C32.6208 22.3958 32.5 22.1 32.5 21.75C32.5 21.4 32.6208 21.1042 32.8625 20.8625C33.1042 20.6208 33.4 20.5 33.75 20.5C34.1 20.5 34.3958 20.6208 34.6375 20.8625C34.8792 21.1042 35 21.4 35 21.75C35 22.1 34.8792 22.3958 34.6375 22.6375C34.3958 22.8792 34.1 23 33.75 23ZM33.75 32.5C33.4 32.5 33.1042 32.3792 32.8625 32.1375C32.6208 31.8958 32.5 31.6 32.5 31.25C32.5 30.9 32.6208 30.6042 32.8625 30.3625C33.1042 30.1208 33.4 30 33.75 30C34.1 30 34.3958 30.1208 34.6375 30.3625C34.8792 30.6042 35 30.9 35 31.25C35 31.6 34.8792 31.8958 34.6375 32.1375C34.3958 32.3792 34.1 32.5 33.75 32.5ZM35.25 27.75C34.9 27.75 34.6042 27.6292 34.3625 27.3875C34.1208 27.1458 34 26.85 34 26.5C34 26.15 34.1208 25.8542 34.3625 25.6125C34.6042 25.3708 34.9 25.25 35.25 25.25C35.6 25.25 35.8958 25.3708 36.1375 25.6125C36.3792 25.8542 36.5 26.15 36.5 26.5C36.5 26.85 36.3792 27.1458 36.1375 27.3875C35.8958 27.6292 35.6 27.75 35.25 27.75ZM26.5 36.5C25.1167 36.5 23.8167 36.2375 22.6 35.7125C21.3833 35.1875 20.325 34.475 19.425 33.575C18.525 32.675 17.8125 31.6167 17.2875 30.4C16.7625 29.1833 16.5 27.8833 16.5 26.5C16.5 25.1167 16.7625 23.8167 17.2875 22.6C17.8125 21.3833 18.525 20.325 19.425 19.425C20.325 18.525 21.3833 17.8125 22.6 17.2875C23.8167 16.7625 25.1167 16.5 26.5 16.5V18.5C24.2667 18.5 22.375 19.275 20.825 20.825C19.275 22.375 18.5 24.2667 18.5 26.5C18.5 28.7333 19.275 30.625 20.825 32.175C22.375 33.725 24.2667 34.5 26.5 34.5V36.5ZM26.5 28.5C25.95 28.5 25.4792 28.3042 25.0875 27.9125C24.6958 27.5208 24.5 27.05 24.5 26.5C24.5 26.4167 24.5042 26.3292 24.5125 26.2375C24.5208 26.1458 24.5417 26.0583 24.575 25.975L22.5 23.9L23.9 22.5L25.975 24.575C26.0417 24.5583 26.2167 24.5333 26.5 24.5C27.05 24.5 27.5208 24.6958 27.9125 25.0875C28.3042 25.4792 28.5 25.95 28.5 26.5C28.5 27.05 28.3042 27.5208 27.9125 27.9125C27.5208 28.3042 27.05 28.5 26.5 28.5Z" fill="white"/>
</g>
</svg>
