<svg width="53" height="53" viewBox="0 0 53 53" fill="none" xmlns="http://www.w3.org/2000/svg">
<rect width="53" height="53" rx="25" fill="#F0FDF4"/>
<rect x="8.5" y="8.5" width="36" height="36" rx="18" fill="#15803D"/>
<mask id="mask0_1213_5013" style="mask-type:alpha" maskUnits="userSpaceOnUse" x="14" y="14" width="25" height="25">
<rect x="14.5" y="14.5" width="24" height="24" fill="#D9D9D9"/>
</mask>
<g mask="url(#mask0_1213_5013)">
<path d="M25.1 31.1L32.15 24.05L30.75 22.65L25.1 28.3L22.25 25.45L20.85 26.85L25.1 31.1ZM26.5 36.5C25.1167 36.5 23.8167 36.2375 22.6 35.7125C21.3833 35.1875 20.325 34.475 19.425 33.575C18.525 32.675 17.8125 31.6167 17.2875 30.4C16.7625 29.1833 16.5 27.8833 16.5 26.5C16.5 25.1167 16.7625 23.8167 17.2875 22.6C17.8125 21.3833 18.525 20.325 19.425 19.425C20.325 18.525 21.3833 17.8125 22.6 17.2875C23.8167 16.7625 25.1167 16.5 26.5 16.5C27.8833 16.5 29.1833 16.7625 30.4 17.2875C31.6167 17.8125 32.675 18.525 33.575 19.425C34.475 20.325 35.1875 21.3833 35.7125 22.6C36.2375 23.8167 36.5 25.1167 36.5 26.5C36.5 27.8833 36.2375 29.1833 35.7125 30.4C35.1875 31.6167 34.475 32.675 33.575 33.575C32.675 34.475 31.6167 35.1875 30.4 35.7125C29.1833 36.2375 27.8833 36.5 26.5 36.5ZM26.5 34.5C28.7333 34.5 30.625 33.725 32.175 32.175C33.725 30.625 34.5 28.7333 34.5 26.5C34.5 24.2667 33.725 22.375 32.175 20.825C30.625 19.275 28.7333 18.5 26.5 18.5C24.2667 18.5 22.375 19.275 20.825 20.825C19.275 22.375 18.5 24.2667 18.5 26.5C18.5 28.7333 19.275 30.625 20.825 32.175C22.375 33.725 24.2667 34.5 26.5 34.5Z" fill="white"/>
</g>
</svg>
