<?xml version="1.0" encoding="UTF-8"?>
<svg version="1.1" xmlns="http://www.w3.org/2000/svg" width="192" height="192">
<path d="M0 0 C1.31319717 -0.00511093 2.62639435 -0.01022186 3.97938538 -0.01548767 C7.56207495 -0.02881203 11.14465861 -0.02946377 14.72736812 -0.02692437 C17.72672093 -0.02585031 20.7260527 -0.03074906 23.72540098 -0.03552979 C30.80523144 -0.04660201 37.88500883 -0.04707511 44.96484375 -0.04101562 C52.25055248 -0.03497552 59.53606811 -0.04729294 66.82174391 -0.06858569 C73.09461788 -0.08623935 79.36743059 -0.09219718 85.64032847 -0.08894795 C89.37912254 -0.08714113 93.11777881 -0.08971094 96.85655022 -0.10366249 C101.02819101 -0.11864879 105.19944209 -0.10923791 109.37109375 -0.09765625 C110.59786835 -0.10529999 111.82464294 -0.11294373 113.08859253 -0.12081909 C121.50955746 -0.06923806 129.5753935 0.64467483 136.12524414 6.4621582 C136.75172852 6.99196289 137.37821289 7.52176758 138.02368164 8.06762695 C142.7432565 14.10056767 143.19487578 20.66872706 143.17016602 28.02026367 C143.17863556 28.96121887 143.1871051 29.90217407 143.1958313 30.87164307 C143.2191043 33.96185061 143.22022574 37.05155739 143.21899414 40.1418457 C143.22610159 42.30364173 143.23380144 44.46543587 143.24206543 46.62722778 C143.25548803 51.15119678 143.25708897 55.67499132 143.2512207 60.19897461 C143.24532707 65.97798476 143.27591342 71.75615411 143.31633759 77.53500175 C143.34226749 81.99789896 143.34508717 86.46059514 143.34144592 90.92355728 C143.34313223 93.05328611 143.35272726 95.18302471 143.37059021 97.31267929 C143.53279216 119.04047805 143.53279216 119.04047805 137.75024414 126.2746582 C135.39868164 128.52856445 135.39868164 128.52856445 133.12524414 129.8371582 C132.36985352 130.29219727 131.61446289 130.74723633 130.83618164 131.21606445 C127.4764353 132.92110426 124.88638545 133.39284305 121.17599487 133.34539795 C120.23722504 133.33639969 119.2984552 133.32740143 118.33123779 133.31813049 C117.30274719 133.30346237 116.27425659 133.28879425 115.21459961 133.27368164 C112.96483892 133.2509107 110.7150725 133.22870028 108.46530151 133.20697021 C107.26906033 133.19418785 106.07281914 133.18140549 104.84032822 133.16823578 C97.15823235 133.09765969 89.47576179 133.09141761 81.79339409 133.07438278 C75.05286669 133.05684296 68.31390107 133.01556925 61.57397461 132.92163086 C55.04702792 132.83330063 48.52257562 132.80954031 41.99509048 132.82801056 C39.51934288 132.82373724 37.04351638 132.79673466 34.56829453 132.7455368 C19.56799067 132.45058168 9.51592626 133.46996311 -1.76657104 143.92047119 C-2.6278039 144.75891445 -2.6278039 144.75891445 -3.50643539 145.61429596 C-6.30502903 148.27971479 -9.34496355 150.6305367 -12.37475586 153.0246582 C-13.83268555 154.22348633 -13.83268555 154.22348633 -15.32006836 155.4465332 C-18.74780585 157.5854414 -21.23461046 158.08681514 -25.24975586 158.2746582 C-29.26494649 156.75949193 -30.85343939 155.86913291 -33.24975586 152.2746582 C-33.50423145 149.83513355 -33.50423145 149.83513355 -33.51045227 146.88056946 C-33.51753708 145.7605101 -33.52462189 144.64045074 -33.53192139 143.4864502 C-33.52944397 142.25680542 -33.52696655 141.02716064 -33.52441406 139.76025391 C-33.52952499 138.46568771 -33.53463593 137.17112152 -33.53990173 135.83732605 C-33.55330794 132.28333225 -33.55386823 128.7294447 -33.55133843 125.17543054 C-33.55026902 122.20605812 -33.55515174 119.23670722 -33.55994385 116.26733941 C-33.57104634 109.25714873 -33.57147342 102.24701163 -33.56542969 95.23681641 C-33.55939919 88.01537946 -33.57167556 80.7941378 -33.59299976 73.57273418 C-33.61064792 67.36706723 -33.61661174 61.16146225 -33.61336201 54.95577115 C-33.61155287 51.25214566 -33.61414759 47.54865922 -33.62807655 43.84505653 C-33.64305008 39.70858853 -33.63365673 35.57251405 -33.62207031 31.43603516 C-33.62971405 30.21651154 -33.63735779 28.99698792 -33.64523315 27.74050903 C-33.59843974 20.17438663 -33.18326517 13.91984729 -28.26928711 7.8137207 C-27.5409668 7.18208008 -26.81264648 6.55043945 -26.06225586 5.8996582 C-25.34682617 5.25254883 -24.63139648 4.60543945 -23.89428711 3.9387207 C-16.65669055 -0.61551288 -8.24981533 -0.01663269 0 0 Z M5.81274414 55.7746582 C3.70947907 58.32407041 2.8806229 59.82734416 3.14477539 63.16137695 C6.35452435 74.36443621 16.78565764 83.97114648 26.36743164 89.99731445 C40.28346515 97.45722094 55.13067315 99.36013686 70.31640625 95.03417969 C85.53134976 90.38772336 96.5563142 80.82513781 104.75024414 67.2746582 C106.31454662 64.14605325 106.10651698 61.71862896 105.75024414 58.2746582 C103.08746412 55.04704605 101.52616553 54.36087169 97.37524414 53.8996582 C91.80703014 56.01173937 89.84943932 60.38272015 86.75024414 65.2746582 C81.25650842 73.22896852 73.01961553 77.78167323 63.75024414 80.2746582 C50.88814403 81.81140788 40.16939345 79.86791854 29.37524414 72.4621582 C24.3816814 68.43208371 20.94110528 63.38747635 17.81274414 57.8371582 C15.89331471 54.97557904 15.89331471 54.97557904 12.31274414 54.1496582 C8.72998473 54.02374465 8.72998473 54.02374465 5.81274414 55.7746582 Z " fill="#4459FA" transform="translate(41.249755859375,16.725341796875)"/>
</svg>
