<svg width="53" height="53" viewBox="0 0 53 53" fill="none" xmlns="http://www.w3.org/2000/svg">
<rect width="53" height="53" rx="25" fill="#FF5C5C" fill-opacity="0.2"/>
<rect x="8.5" y="8.5" width="36" height="36" rx="18" fill="#FF5C5C"/>
<mask id="mask0_1204_3753" style="mask-type:alpha" maskUnits="userSpaceOnUse" x="14" y="14" width="25" height="25">
<rect x="14.5" y="14.5" width="24" height="24" fill="#D9D9D9"/>
</mask>
<g mask="url(#mask0_1204_3753)">
<path d="M22.8985 31.4941L26.4985 27.8941L30.0985 31.4941L31.4985 30.0941L27.8985 26.4941L31.4985 22.8941L30.0985 21.4941L26.4985 25.0941L22.8985 21.4941L21.4985 22.8941L25.0985 26.4941L21.4985 30.0941L22.8985 31.4941ZM26.4985 36.4941C25.1152 36.4941 23.8152 36.2316 22.5985 35.7066C21.3819 35.1816 20.3235 34.4691 19.4235 33.5691C18.5235 32.6691 17.811 31.6108 17.286 30.3941C16.761 29.1775 16.4985 27.8775 16.4985 26.4941C16.4985 25.1108 16.761 23.8108 17.286 22.5941C17.811 21.3775 18.5235 20.3191 19.4235 19.4191C20.3235 18.5191 21.3819 17.8066 22.5985 17.2816C23.8152 16.7566 25.1152 16.4941 26.4985 16.4941C27.8819 16.4941 29.1819 16.7566 30.3985 17.2816C31.6152 17.8066 32.6735 18.5191 33.5735 19.4191C34.4735 20.3191 35.186 21.3775 35.711 22.5941C36.236 23.8108 36.4985 25.1108 36.4985 26.4941C36.4985 27.8775 36.236 29.1775 35.711 30.3941C35.186 31.6108 34.4735 32.6691 33.5735 33.5691C32.6735 34.4691 31.6152 35.1816 30.3985 35.7066C29.1819 36.2316 27.8819 36.4941 26.4985 36.4941ZM26.4985 34.4941C28.7319 34.4941 30.6235 33.7191 32.1735 32.1691C33.7235 30.6191 34.4985 28.7275 34.4985 26.4941C34.4985 24.2608 33.7235 22.3691 32.1735 20.8191C30.6235 19.2691 28.7319 18.4941 26.4985 18.4941C24.2652 18.4941 22.3735 19.2691 20.8235 20.8191C19.2735 22.3691 18.4985 24.2608 18.4985 26.4941C18.4985 28.7275 19.2735 30.6191 20.8235 32.1691C22.3735 33.7191 24.2652 34.4941 26.4985 34.4941Z" fill="white"/>
</g>
</svg>
