<svg width="18" height="18" viewBox="0 0 18 18" fill="none" xmlns="http://www.w3.org/2000/svg">
<mask id="mask0_1213_5157" style="mask-type:alpha" maskUnits="userSpaceOnUse" x="0" y="0" width="18" height="18">
<rect width="18" height="18" fill="#D9D9D9"/>
</mask>
<g mask="url(#mask0_1213_5157)">
<path d="M7.1248 15.7496V13.4996L4.4998 10.8746V6.74961C4.4998 6.44961 4.56856 6.16836 4.70606 5.90586C4.84355 5.64336 5.04356 5.44336 5.30606 5.30586L6.74981 6.74961H5.9998V10.2371L8.62481 12.8621V14.2496H9.37481V12.8621L10.0686 12.1684L1.0498 3.14961L2.0998 2.09961L15.8998 15.8996L14.8498 16.9496L11.1373 13.2371L10.8748 13.4996V15.7496H7.1248ZM12.8623 10.7246L11.9998 9.86211V6.74961H8.88731L5.9998 3.86211V2.24961H7.4998V5.24961H10.4998V2.24961H11.9998V5.99961L11.2498 5.24961H11.9998C12.4123 5.24961 12.7654 5.39648 13.0592 5.69023C13.3529 5.98398 13.4998 6.33711 13.4998 6.74961V10.0871L12.8623 10.7246Z" fill="white"/>
</g>
</svg>
