<svg width="152" height="20" viewBox="0 0 152 20" fill="none" xmlns="http://www.w3.org/2000/svg">
<path d="M0 3.93819C0 2.53412 1.14141 1.39551 2.54892 1.39551H17.8424C19.2505 1.39551 20.3914 2.53412 20.3914 3.93819V14.1089C20.3914 15.5135 19.2505 16.6516 17.8424 16.6516H5.15951L1.63691 19.3255C0.965531 19.835 0 19.3575 0 18.5159V10.45V10.447V3.93819ZM6.00834 8.00444C5.76108 7.49997 5.15033 7.29044 4.64464 7.53709C4.13843 7.78374 3.92891 8.39295 4.17615 8.89742C5.26302 11.1162 7.5489 12.6479 10.1957 12.6479C12.8425 12.6479 15.1283 11.1162 16.2152 8.89742C16.4624 8.39244 16.253 7.78374 15.7467 7.53709C15.241 7.29044 14.6303 7.49997 14.383 8.00444C13.625 9.55142 12.034 10.6137 10.1957 10.6137C8.35739 10.6137 6.76638 9.55193 6.00834 8.00444Z" fill="#455AFB"/>
<path d="M25.4902 13.6434L26.4115 12.371C27.1674 13.2428 28.6083 13.9969 30.1674 13.9969C31.9154 13.9969 32.8603 13.2193 32.8603 12.1118C32.8603 10.8629 31.4666 10.4623 29.9312 10.0852C27.9941 9.63752 25.7973 9.11911 25.7973 6.76273C25.7973 4.99538 27.3327 3.4873 30.0493 3.4873C31.9862 3.4873 33.3563 4.21779 34.2776 5.13678L33.4508 6.36213C32.7658 5.53738 31.5138 4.92473 30.0493 4.92473C28.4902 4.92473 27.5217 5.63162 27.5217 6.64487C27.5217 7.75241 28.8209 8.10585 30.3091 8.45934C32.2934 8.90706 34.5846 9.47259 34.5846 11.9939C34.5846 13.9026 33.0493 15.4343 30.0965 15.4343C28.2304 15.4343 26.6477 14.8688 25.4902 13.6434ZM44.1006 15.1515V13.5492C43.2266 14.5389 41.7384 15.4343 40.0376 15.4343C37.6518 15.4343 36.3999 14.2797 36.3999 11.8054V3.77007H38.1715V11.2635C38.1715 13.2664 39.1873 13.8555 40.7227 13.8555C42.1164 13.8555 43.4392 13.0543 44.1006 12.1353V3.77007H45.8723V15.1515H44.1006ZM48.3472 15.1515V3.77007H50.1189V5.60808C51.0403 4.4063 52.363 3.53443 53.9222 3.53443V5.34887C53.7096 5.30176 53.497 5.27817 53.2135 5.27817C52.1271 5.27817 50.6388 6.17362 50.1189 7.09259V15.1515H48.3472ZM54.4202 9.44901C54.4202 6.15004 56.7822 3.4873 60.0423 3.4873C63.4907 3.4873 65.5222 6.17362 65.5222 9.59041V10.0381H56.2861C56.4279 12.1825 57.9399 13.9733 60.3962 13.9733C61.6956 13.9733 63.0184 13.4549 63.916 12.5359L64.7664 13.6905C63.6325 14.8216 62.0971 15.4343 60.2311 15.4343C56.8531 15.4343 54.4202 13.0072 54.4202 9.44901ZM60.0185 4.94827C57.5856 4.94827 56.3808 6.99836 56.2861 8.74208H63.7742C63.7509 7.04548 62.617 4.94827 60.0185 4.94827Z" fill="#020617"/>
<path d="M70.3762 15.3485H68.0127V4.27442H75.8687V6.34976H70.3762V8.69074H75.7521V10.7661H70.3762V15.3485ZM85.3766 15.3485H77.5211V4.27442H85.3766V6.34976H79.8846V8.69074H85.2605V10.7661H79.8846V13.2731H85.3766V15.3485ZM95.0799 15.3485H87.2244V4.27442H95.0799V6.34976H89.5878V8.69074H94.9638V10.7661H89.5878V13.2731H95.0799V15.3485ZM101.305 15.3485H96.9277V4.27442H101.305C103.047 4.27442 104.461 4.78358 105.549 5.80186C106.647 6.82018 107.197 8.15949 107.197 9.81976C107.197 11.48 106.653 12.8193 105.566 13.8376C104.478 14.8448 103.058 15.3485 101.305 15.3485ZM101.305 13.2731C102.37 13.2731 103.213 12.9411 103.835 12.277C104.467 11.6128 104.783 10.7938 104.783 9.81976C104.783 8.80144 104.478 7.9713 103.868 7.32935C103.258 6.67628 102.403 6.34976 101.305 6.34976H99.2911V13.2731H101.305ZM114.899 15.3485H108.874V4.27442H114.716C115.725 4.27442 116.508 4.55114 117.063 5.10456C117.629 5.64693 117.911 6.31102 117.911 7.09688C117.911 7.77209 117.728 8.33656 117.362 8.79037C116.996 9.24418 116.541 9.52642 115.997 9.63711C116.596 9.72567 117.101 10.03 117.512 10.5503C117.922 11.0705 118.127 11.6737 118.127 12.36C118.127 13.2233 117.845 13.9373 117.279 14.5017C116.713 15.0662 115.92 15.3485 114.899 15.3485ZM114.2 8.70735C114.599 8.70735 114.915 8.59669 115.149 8.3753C115.382 8.15395 115.498 7.86614 115.498 7.51195C115.498 7.15776 115.376 6.87 115.132 6.6486C114.899 6.41618 114.588 6.29995 114.2 6.29995H111.237V8.70735H114.2ZM114.283 13.3063C114.727 13.3063 115.076 13.1956 115.331 12.9743C115.587 12.7418 115.715 12.4264 115.715 12.0279C115.715 11.6626 115.587 11.3583 115.331 11.1147C115.076 10.8602 114.727 10.7329 114.283 10.7329H111.237V13.3063H114.283ZM130.262 15.3485H127.566L126.884 13.4724H122.124L121.424 15.3485H118.728L123.022 4.27442H125.985L130.262 15.3485ZM126.234 11.397L124.504 6.632L122.773 11.397H126.234ZM136.094 15.5477C134.408 15.5477 132.999 15.0164 131.867 13.9538C130.746 12.8802 130.186 11.5021 130.186 9.81976C130.186 8.13735 130.746 6.76483 131.867 5.70228C132.999 4.62862 134.408 4.0918 136.094 4.0918C138.169 4.0918 139.717 4.99386 140.738 6.79804L138.707 7.79423C138.463 7.32935 138.102 6.94748 137.625 6.6486C137.16 6.33869 136.649 6.18376 136.094 6.18376C135.085 6.18376 134.253 6.52688 133.598 7.21311C132.943 7.89935 132.616 8.76823 132.616 9.81976C132.616 10.8713 132.943 11.7401 133.598 12.4264C134.253 13.1126 135.085 13.4558 136.094 13.4558C136.649 13.4558 137.16 13.3063 137.625 13.0075C138.102 12.7086 138.463 12.3212 138.707 11.8453L140.738 12.8248C139.684 14.6401 138.136 15.5477 136.094 15.5477ZM151.648 15.3485H148.735L145.373 10.9155L144.508 11.9449V15.3485H142.144V4.27442H144.508V9.22204L148.436 4.27442H151.348L146.938 9.47107L151.648 15.3485Z" fill="#020617"/>
</svg>
