<svg width="32" height="32" viewBox="0 0 32 32" fill="none" xmlns="http://www.w3.org/2000/svg">
<mask id="mask0_1224_5217" style="mask-type:alpha" maskUnits="userSpaceOnUse" x="0" y="0" width="32" height="32">
<rect width="32" height="32" fill="#D9D9D9"/>
</mask>
<g mask="url(#mask0_1224_5217)">
<path d="M27.6003 23.7988L25.1336 21.3322H26.6669V6.66549H10.4669L7.80026 3.99883H26.6669C27.4003 3.99883 28.028 4.25994 28.5503 4.78216C29.0725 5.30438 29.3336 5.93216 29.3336 6.66549V21.3322C29.3336 21.9099 29.1725 22.4155 28.8503 22.8488C28.528 23.2822 28.1114 23.5988 27.6003 23.7988ZM27.3336 31.0655L24.2669 27.9988H1.33359V25.3322H21.5669L20.2336 23.9988H5.33359C4.60026 23.9988 3.97248 23.7377 3.45026 23.2155C2.92804 22.6933 2.66693 22.0655 2.66693 21.3322V6.46549L0.933594 4.66549L2.80026 2.79883L29.2003 29.1988L27.3336 31.0655ZM17.5336 21.3322L5.33359 9.09883V21.3322H17.5336ZM16.6669 12.8655L20.2336 9.29883L22.1336 11.1988L18.5669 14.7655L16.6669 12.8655Z" fill="#9CA3AF"/>
</g>
</svg>
