<svg width="32" height="32" viewBox="0 0 32 32" fill="none" xmlns="http://www.w3.org/2000/svg">
<mask id="mask0_1224_5211" style="mask-type:alpha" maskUnits="userSpaceOnUse" x="0" y="0" width="32" height="32">
<rect width="32" height="32" fill="#D9D9D9"/>
</mask>
<g mask="url(#mask0_1224_5211)">
<path d="M14.5663 18.7333L22.133 11.2L20.233 9.3L14.5663 14.9667L11.733 12.1333L9.86634 14L14.5663 18.7333ZM1.33301 28V25.3333H30.6663V28H1.33301ZM5.33301 24C4.59967 24 3.9719 23.7389 3.44967 23.2167C2.92745 22.6944 2.66634 22.0667 2.66634 21.3333V6.66667C2.66634 5.93333 2.92745 5.30556 3.44967 4.78333C3.9719 4.26111 4.59967 4 5.33301 4H26.6663C27.3997 4 28.0275 4.26111 28.5497 4.78333C29.0719 5.30556 29.333 5.93333 29.333 6.66667V21.3333C29.333 22.0667 29.0719 22.6944 28.5497 23.2167C28.0275 23.7389 27.3997 24 26.6663 24H5.33301ZM5.33301 21.3333H26.6663V6.66667H5.33301V21.3333Z" fill="#9CA3AF"/>
</g>
</svg>
